<mxfile host="app.diagrams.net" modified="2023-04-30T13:00:02.635Z" agent="Mozilla/5.0 (Windows NT 10.0; Win64; x64) AppleWebKit/537.36 (KHTML, like Gecko) Chrome/112.0.0.0 Safari/537.36" etag="AWSeM7JUxNRw5kgtnqP9" version="21.1.1" type="github">
  <diagram name="Page-1" id="CjbLvuf9Ty9q6dteD8Ma">
    <mxGraphModel dx="1050" dy="549" grid="1" gridSize="10" guides="1" tooltips="1" connect="1" arrows="1" fold="1" page="1" pageScale="1" pageWidth="850" pageHeight="1100" math="0" shadow="0">
      <root>
        <mxCell id="0" />
        <mxCell id="1" parent="0" />
        <mxCell id="WMxFekpVjy091wSbI-C_-6" style="rounded=0;orthogonalLoop=1;jettySize=auto;html=1;entryX=0.5;entryY=1;entryDx=0;entryDy=0;endArrow=none;endFill=0;" edge="1" parent="1" source="WMxFekpVjy091wSbI-C_-1" target="WMxFekpVjy091wSbI-C_-2">
          <mxGeometry relative="1" as="geometry" />
        </mxCell>
        <mxCell id="WMxFekpVjy091wSbI-C_-7" style="rounded=0;orthogonalLoop=1;jettySize=auto;html=1;entryX=0.5;entryY=1;entryDx=0;entryDy=0;endArrow=none;endFill=0;" edge="1" parent="1" source="WMxFekpVjy091wSbI-C_-1" target="WMxFekpVjy091wSbI-C_-3">
          <mxGeometry relative="1" as="geometry" />
        </mxCell>
        <mxCell id="WMxFekpVjy091wSbI-C_-8" style="rounded=0;orthogonalLoop=1;jettySize=auto;html=1;entryX=0;entryY=0.5;entryDx=0;entryDy=0;endArrow=none;endFill=0;" edge="1" parent="1" source="WMxFekpVjy091wSbI-C_-1" target="WMxFekpVjy091wSbI-C_-4">
          <mxGeometry relative="1" as="geometry" />
        </mxCell>
        <mxCell id="WMxFekpVjy091wSbI-C_-9" style="rounded=0;orthogonalLoop=1;jettySize=auto;html=1;entryX=0;entryY=0.5;entryDx=0;entryDy=0;endArrow=none;endFill=0;" edge="1" parent="1" source="WMxFekpVjy091wSbI-C_-1" target="WMxFekpVjy091wSbI-C_-5">
          <mxGeometry relative="1" as="geometry" />
        </mxCell>
        <mxCell id="WMxFekpVjy091wSbI-C_-1" value="product" style="rounded=0;whiteSpace=wrap;html=1;" vertex="1" parent="1">
          <mxGeometry x="425" y="150" width="120" height="60" as="geometry" />
        </mxCell>
        <mxCell id="WMxFekpVjy091wSbI-C_-2" value="&lt;u&gt;id&lt;/u&gt;" style="ellipse;whiteSpace=wrap;html=1;" vertex="1" parent="1">
          <mxGeometry x="400" y="60" width="85" height="50" as="geometry" />
        </mxCell>
        <mxCell id="WMxFekpVjy091wSbI-C_-3" value="name" style="ellipse;whiteSpace=wrap;html=1;" vertex="1" parent="1">
          <mxGeometry x="560" y="70" width="85" height="50" as="geometry" />
        </mxCell>
        <mxCell id="WMxFekpVjy091wSbI-C_-4" value="description" style="ellipse;whiteSpace=wrap;html=1;" vertex="1" parent="1">
          <mxGeometry x="625" y="155" width="85" height="50" as="geometry" />
        </mxCell>
        <mxCell id="WMxFekpVjy091wSbI-C_-5" value="brand_name" style="ellipse;whiteSpace=wrap;html=1;" vertex="1" parent="1">
          <mxGeometry x="610" y="260" width="85" height="50" as="geometry" />
        </mxCell>
      </root>
    </mxGraphModel>
  </diagram>
</mxfile>
